# Rhino

mtllib 1.mtl
usemtl diffuse_ControlText
v 0.15533663332462311 0 -5.0621466636657715
v 0.15533663332462311 2.8490567207336426 -5.0621466636657715
v 0.15533663332462311 0 7.0541105270385742
v 0.15533663332462311 2.8490567207336426 7.0541105270385742
v 0.15533663332462311 0 7.0541105270385742
v 0.15533663332462311 2.8490567207336426 7.0541105270385742
v 2.2843623161315918 0 7.0541105270385742
v 2.2843623161315918 2.8490567207336426 7.0541105270385742
v 2.2843623161315918 0 7.0541105270385742
v 2.2843623161315918 2.8490567207336426 7.0541105270385742
v 2.2843623161315918 0 -7.0541105270385742
v 2.2843623161315918 2.8490567207336426 -7.0541105270385742
v 2.2843623161315918 0 -7.0541105270385742
v 2.2843623161315918 2.8490567207336426 -7.0541105270385742
v -1.1147687435150146 0 -7.0541105270385742
v -1.1147687435150146 2.8490567207336426 -7.0541105270385742
v -1.1147687435150146 0 -7.0541105270385742
v -1.1147687435150146 2.8490567207336426 -7.0541105270385742
v -2.2843623161315918 0 -5.0621466636657715
v -2.2843623161315918 2.8490567207336426 -5.0621466636657715
v -2.2843623161315918 0 -5.0621466636657715
v -2.2843623161315918 2.8490567207336426 -5.0621466636657715
v 0.15533663332462311 0 -5.0621466636657715
v 0.15533663332462311 2.8490567207336426 -5.0621466636657715
v 0.15533663332462311 0 -5.0621466636657715
v 0.15533663332462311 0 7.0541105270385742
v 2.2843623161315918 0 7.0541105270385742
v 2.2843623161315918 0 -7.0541105270385742
v -1.1147687435150146 0 -7.0541105270385742
v -2.2843623161315918 0 -5.0621466636657715
v 0.15533663332462311 2.8490567207336426 -5.0621466636657715
v 0.15533663332462311 2.8490567207336426 7.0541105270385742
v 2.2843623161315918 2.8490567207336426 7.0541105270385742
v 2.2843623161315918 2.8490567207336426 -7.0541105270385742
v -1.1147687435150146 2.8490567207336426 -7.0541105270385742
v -2.2843623161315918 2.8490567207336426 -5.0621466636657715
vt 0 0
vt 0 0.61884397268295288
vt 0.1666666716337204 0
vt 0.1666666716337204 0.61884397268295288
vt 0.1666666716337204 0
vt 0.1666666716337204 0.61884397268295288
vt 0.3333333432674408 0
vt 0.3333333432674408 0.61884397268295288
vt 0.3333333432674408 0
vt 0.3333333432674408 0.61884397268295288
vt 0.5 0
vt 0.5 0.61884397268295288
vt 0.5 0
vt 0.5 0.61884397268295288
vt 0.66666668653488159 0
vt 0.66666668653488159 0.61884397268295288
vt 0.66666668653488159 0
vt 0.66666668653488159 0.61884397268295288
vt 0.83333331346511841 0
vt 0.83333331346511841 0.61884397268295288
vt 0.83333331346511841 0
vt 0.83333331346511841 0.61884397268295288
vt 1 0
vt 1 0.61884397268295288
vt 0.054570939391851425 0.7964630126953125
vt 0.38650241494178772 0.7964630126953125
vt 0.38650241494178772 0.61884456872940063
vt 0 0.61884456872940063
vt 0 0.90242421627044678
vt 0.054570939391851425 1
vt 0.054570939391851425 0.82238155603408813
vt 0.38650241494178772 0.82238155603408813
vt 0.38650241494178772 1
vt 0 1
vt 0 0.71642035245895386
vt 0.054570939391851425 0.61884456872940063
vn -1 0 0
vn -1 0 0
vn -1 0 0
vn -1 0 0
vn 0 0 1
vn 0 0 1
vn 0 0 1
vn 0 0 1
vn 1 0 0
vn 1 0 0
vn 1 0 0
vn 1 0 0
vn 0 0 -1
vn 0 0 -1
vn 0 0 -1
vn 0 0 -1
vn -0.86234068870544434 0 -0.50632846355438232
vn -0.86234068870544434 0 -0.50632846355438232
vn -0.86234068870544434 0 -0.50632846355438232
vn -0.86234068870544434 0 -0.50632846355438232
vn 0 0 1
vn 0 0 1
vn 0 0 1
vn 0 0 1
vn 0 -1 0
vn 0 -1 0
vn 0 -1 0
vn 0 -1 0
vn 0 -1 0
vn 0 -1 0
vn 0 1 0
vn 0 1 0
vn 0 1 0
vn 0 1 0
vn 0 1 0
vn 0 1 0
f 1/1/1 3/3/3 4/4/4 2/2/2
f 5/5/5 7/7/7 8/8/8 6/6/6
f 9/9/9 11/11/11 12/12/12 10/10/10
f 13/13/13 15/15/15 16/16/16 14/14/14
f 17/17/17 19/19/19 20/20/20 18/18/18
f 21/21/21 23/23/23 24/24/24 22/22/22
f 25/25/25 30/30/30 29/29/29
f 28/28/28 27/27/27 25/25/25
f 26/26/26 25/25/25 27/27/27
f 29/29/29 28/28/28 25/25/25
f 31/31/31 35/35/35 36/36/36
f 34/34/34 31/31/31 33/33/33
f 32/32/32 33/33/33 31/31/31
f 35/35/35 31/31/31 34/34/34
