# Rhino

mtllib 4.mtl
usemtl diffuse_ControlText
v 3.6999626159667969 0 3.6412734985351562
v 3.6999626159667969 2.8490567207336426 3.6412734985351562
v 3.6999626159667969 0 -7.5795140266418457
v 3.6999626159667969 2.8490567207336426 -7.5795140266418457
v 3.6999626159667969 0 -7.5795140266418457
v 3.6999626159667969 2.8490567207336426 -7.5795140266418457
v -5.3552494049072266 0 5.5784125328063965
v -5.3552494049072266 2.8490567207336426 5.5784125328063965
v -5.3552494049072266 0 5.5784125328063965
v -5.3552494049072266 2.8490567207336426 5.5784125328063965
v 1.5709370374679565 0 5.5784125328063965
v 1.5709370374679565 2.8490567207336426 5.5784125328063965
v 1.5709370374679565 0 5.5784125328063965
v 1.5709370374679565 2.8490567207336426 5.5784125328063965
v 1.5709370374679565 0 7.5795140266418457
v 1.5709370374679565 2.8490567207336426 7.5795140266418457
v 1.5709370374679565 0 7.5795140266418457
v 1.5709370374679565 2.8490567207336426 7.5795140266418457
v 3.6999626159667969 0 7.5795140266418457
v 3.6999626159667969 2.8490567207336426 7.5795140266418457
v 3.6999626159667969 0 7.5795140266418457
v 3.6999626159667969 2.8490567207336426 7.5795140266418457
v 3.6999626159667969 0 5.5784125328063965
v 3.6999626159667969 2.8490567207336426 5.5784125328063965
v 3.6999626159667969 0 5.5784125328063965
v 3.6999626159667969 2.8490567207336426 5.5784125328063965
v 5.1985044479370117 0 5.5784125328063965
v 5.1985044479370117 2.8490567207336426 5.5784125328063965
v 5.1985044479370117 0 5.5784125328063965
v 5.1985044479370117 2.8490567207336426 5.5784125328063965
v 5.1985044479370117 0 3.6412734985351562
v 5.1985044479370117 2.8490567207336426 3.6412734985351562
v 5.1985044479370117 0 3.6412734985351562
v 5.1985044479370117 2.8490567207336426 3.6412734985351562
v 3.6999626159667969 0 3.6412734985351562
v 3.6999626159667969 2.8490567207336426 3.6412734985351562
v 1.5709370374679565 0 3.6412734985351562
v 1.5709370374679565 2.8490567207336426 3.6412734985351562
v -1.6819947957992554 0 3.6412734985351562
v -1.6819947957992554 2.8490567207336426 3.6412734985351562
v -1.6819947957992554 0 3.6412734985351562
v -1.6819947957992554 2.8490567207336426 3.6412734985351562
v 1.5709370374679565 0 -1.0827877521514893
v 1.5709370374679565 2.8490567207336426 -1.0827877521514893
v 1.5709370374679565 0 -1.0827877521514893
v 1.5709370374679565 2.8490567207336426 -1.0827877521514893
v 1.5709370374679565 0 3.6412734985351562
v 1.5709370374679565 2.8490567207336426 3.6412734985351562
v 3.6999626159667969 0 3.6412734985351562
v 3.6999626159667969 0 -7.5795140266418457
v -5.3552494049072266 0 5.5784125328063965
v 1.5709370374679565 0 5.5784125328063965
v 1.5709370374679565 0 7.5795140266418457
v 3.6999626159667969 0 7.5795140266418457
v 3.6999626159667969 0 5.5784125328063965
v 5.1985044479370117 0 5.5784125328063965
v 5.1985044479370117 0 3.6412734985351562
v 1.5709370374679565 0 3.6412734985351562
v -1.6819947957992554 0 3.6412734985351562
v 1.5709370374679565 0 -1.0827877521514893
v 3.6999626159667969 2.8490567207336426 3.6412734985351562
v 3.6999626159667969 2.8490567207336426 -7.5795140266418457
v -5.3552494049072266 2.8490567207336426 5.5784125328063965
v 1.5709370374679565 2.8490567207336426 5.5784125328063965
v 1.5709370374679565 2.8490567207336426 7.5795140266418457
v 3.6999626159667969 2.8490567207336426 7.5795140266418457
v 3.6999626159667969 2.8490567207336426 5.5784125328063965
v 5.1985044479370117 2.8490567207336426 5.5784125328063965
v 5.1985044479370117 2.8490567207336426 3.6412734985351562
v 1.5709370374679565 2.8490567207336426 3.6412734985351562
v -1.6819947957992554 2.8490567207336426 3.6412734985351562
v 1.5709370374679565 2.8490567207336426 -1.0827877521514893
vt 0 0
vt 0 0.55946266651153564
vt 0.083333335816860199 0
vt 0.083333335816860199 0.55946266651153564
vt 0.083333335816860199 0
vt 0.083333335816860199 0.55946266651153564
vt 0.1666666716337204 0
vt 0.1666666716337204 0.55946266651153564
vt 0.1666666716337204 0
vt 0.1666666716337204 0.55946266651153564
vt 0.25 0
vt 0.25 0.55946266651153564
vt 0.25 0
vt 0.25 0.55946266651153564
vt 0.3333333432674408 0
vt 0.3333333432674408 0.55946266651153564
vt 0.3333333432674408 0
vt 0.3333333432674408 0.55946266651153564
vt 0.4166666567325592 0
vt 0.4166666567325592 0.55946266651153564
vt 0.4166666567325592 0
vt 0.4166666567325592 0.55946266651153564
vt 0.5 0
vt 0.5 0.55946266651153564
vt 0.5 0
vt 0.5 0.55946266651153564
vt 0.58333331346511841 0
vt 0.58333331346511841 0.55946266651153564
vt 0.58333331346511841 0
vt 0.58333331346511841 0.55946266651153564
vt 0.66666668653488159 0
vt 0.66666668653488159 0.55946266651153564
vt 0.66666668653488159 0
vt 0.66666668653488159 0.55946266651153564
vt 0.75 0
vt 0.75 0.55946266651153564
vt 0.75 0
vt 0.75 0.55946266651153564
vt 0.83333331346511841 0
vt 0.83333331346511841 0.55946266651153564
vt 0.83333331346511841 0
vt 0.83333331346511841 0.55946266651153564
vt 0.91666668653488159 0
vt 0.91666668653488159 0.55946266651153564
vt 0.91666668653488159 0
vt 0.91666668653488159 0.55946266651153564
vt 1 0
vt 1 0.55946266651153564
vt 0.19051268696784973 0.62201559543609619
vt 0 0.62201559543609619
vt 0.22340250015258789 1
vt 0.22340250015258789 0.71088582277297974
vt 0.25737830996513367 0.71088582277297974
vt 0.25737830996513367 0.62201559543609619
vt 0.22340250015258789 0.62201559543609619
vt 0.22340250015258789 0.55946320295333862
vt 0.19051268696784973 0.55946320295333862
vt 0.19051268696784973 0.71088582277297974
vt 0.19051268696784973 0.84667032957077026
vt 0.11030498892068863 0.71088582277297974
vt 0.19051268696784973 0.93744760751724243
vt 0 0.93744760751724243
vt 0.22340250015258789 0.55946320295333862
vt 0.22340250015258789 0.84857738018035889
vt 0.25737830996513367 0.84857738018035889
vt 0.25737830996513367 0.93744760751724243
vt 0.22340250015258789 0.93744760751724243
vt 0.22340250015258789 1
vt 0.19051268696784973 1
vt 0.19051268696784973 0.84857738018035889
vt 0.19051268696784973 0.71279287338256836
vt 0.11030498892068863 0.84857738018035889
vn 1 0 0
vn 1 0 0
vn 1 0 0
vn 1 0 0
vn -0.82377475500106812 0 -0.56691724061965942
vn -0.82377475500106812 0 -0.56691724061965942
vn -0.82377475500106812 0 -0.56691724061965942
vn -0.82377475500106812 0 -0.56691724061965942
vn 0 0 1
vn 0 0 1
vn 0 0 1
vn 0 0 1
vn -1 0 0
vn -1 0 0
vn -1 0 0
vn -1 0 0
vn 0 0 1
vn 0 0 1
vn 0 0 1
vn 0 0 1
vn 1 0 0
vn 1 0 0
vn 1 0 0
vn 1 0 0
vn 0 0 1
vn 0 0 1
vn 0 0 1
vn 0 0 1
vn 1 0 0
vn 1 0 0
vn 1 0 0
vn 1 0 0
vn 0 0 -1
vn 0 0 -1
vn 0 0 -1
vn 0 0 -1
vn 0 0 -1
vn 0 0 -1
vn 0 0 -1
vn 0 0 -1
vn 0.82362335920333862 0 0.56713718175888062
vn 0.82362335920333862 0 0.56713718175888062
vn 0.82362335920333862 0 0.56713718175888062
vn 0.82362335920333862 0 0.56713718175888062
vn -1 0 0
vn -1 0 0
vn -1 0 0
vn -1 0 0
vn 0 -1 0
vn 0 -1 0
vn 0 -1 0
vn 0 -1 0
vn 0 -1 0
vn 0 -1 0
vn 0 -1 0
vn 0 -1 0
vn 0 -1 0
vn 0 -1 0
vn 0 -1 0
vn 0 -1 0
vn 0 1 0
vn 0 1 0
vn 0 1 0
vn 0 1 0
vn 0 1 0
vn 0 1 0
vn 0 1 0
vn 0 1 0
vn 0 1 0
vn 0 1 0
vn 0 1 0
vn 0 1 0
f 1/1/1 3/3/3 4/4/4 2/2/2
f 5/5/5 7/7/7 8/8/8 6/6/6
f 9/9/9 11/11/11 12/12/12 10/10/10
f 13/13/13 15/15/15 16/16/16 14/14/14
f 17/17/17 19/19/19 20/20/20 18/18/18
f 21/21/21 23/23/23 24/24/24 22/22/22
f 25/25/25 27/27/27 28/28/28 26/26/26
f 29/29/29 31/31/31 32/32/32 30/30/30
f 33/33/33 35/35/35 36/36/36 34/34/34
f 37/37/37 39/39/39 40/40/40 38/38/38
f 41/41/41 43/43/43 44/44/44 42/42/42
f 45/45/45 47/47/47 48/48/48 46/46/46
f 54/54/54 53/53/53 52/52/52
f 59/59/59 52/52/52 51/51/51
f 52/52/52 59/59/59 58/58/58
f 49/49/49 58/58/58 60/60/60
f 51/51/51 60/60/60 59/59/59
f 58/58/58 55/55/55 52/52/52
f 50/50/50 60/60/60 51/51/51
f 57/57/57 56/56/56 55/55/55
f 52/52/52 55/55/55 54/54/54
f 49/49/49 60/60/60 50/50/50
f 55/55/55 49/49/49 57/57/57
f 58/58/58 49/49/49 55/55/55
f 66/66/66 64/64/64 65/65/65
f 71/71/71 63/63/63 64/64/64
f 64/64/64 70/70/70 71/71/71
f 61/61/61 72/72/72 70/70/70
f 63/63/63 71/71/71 72/72/72
f 70/70/70 64/64/64 67/67/67
f 62/62/62 63/63/63 72/72/72
f 69/69/69 67/67/67 68/68/68
f 64/64/64 66/66/66 67/67/67
f 61/61/61 62/62/62 72/72/72
f 67/67/67 69/69/69 61/61/61
f 70/70/70 67/67/67 61/61/61
