# Rhino

mtllib 7.mtl
usemtl diffuse_ControlText
v 1.7406840324401855 0 -5.3042893409729004
v 1.7406840324401855 2.8490567207336426 -5.3042893409729004
v -5.2951517105102539 0 6.2271714210510254
v -5.2951517105102539 2.8490567207336426 6.2271714210510254
v -5.2951517105102539 0 6.2271714210510254
v -5.2951517105102539 2.8490567207336426 6.2271714210510254
v -3.6047236919403076 0 7.2962532043457031
v -3.6047236919403076 2.8490567207336426 7.2962532043457031
v -3.6047236919403076 0 7.2962532043457031
v -3.6047236919403076 2.8490567207336426 7.2962532043457031
v 5.2951517105102539 0 -7.2962532043457031
v 5.2951517105102539 2.8490567207336426 -7.2962532043457031
v 5.2951517105102539 0 -7.2962532043457031
v 5.2951517105102539 2.8490567207336426 -7.2962532043457031
v -5.2220520973205566 0 -7.2962532043457031
v -5.2220520973205566 2.8490567207336426 -7.2962532043457031
v -5.2220520973205566 0 -7.2962532043457031
v -5.2220520973205566 2.8490567207336426 -7.2962532043457031
v -5.2220520973205566 0 -5.3042893409729004
v -5.2220520973205566 2.8490567207336426 -5.3042893409729004
v -5.2220520973205566 0 -5.3042893409729004
v -5.2220520973205566 2.8490567207336426 -5.3042893409729004
v 1.7406840324401855 0 -5.3042893409729004
v 1.7406840324401855 2.8490567207336426 -5.3042893409729004
v 1.7406840324401855 0 -5.3042893409729004
v -5.2951517105102539 0 6.2271714210510254
v -3.6047236919403076 0 7.2962532043457031
v 5.2951517105102539 0 -7.2962532043457031
v -5.2220520973205566 0 -7.2962532043457031
v -5.2220520973205566 0 -5.3042893409729004
v 1.7406840324401855 2.8490567207336426 -5.3042893409729004
v -5.2951517105102539 2.8490567207336426 6.2271714210510254
v -3.6047236919403076 2.8490567207336426 7.2962532043457031
v 5.2951517105102539 2.8490567207336426 -7.2962532043457031
v -5.2220520973205566 2.8490567207336426 -7.2962532043457031
v -5.2220520973205566 2.8490567207336426 -5.3042893409729004
vt 0 0
vt 0 0.55928176641464233
vt 0.1666666716337204 0
vt 0.1666666716337204 0.55928176641464233
vt 0.1666666716337204 0
vt 0.1666666716337204 0.55928176641464233
vt 0.3333333432674408 0
vt 0.3333333432674408 0.55928176641464233
vt 0.3333333432674408 0
vt 0.3333333432674408 0.55928176641464233
vt 0.5 0
vt 0.5 0.55928176641464233
vt 0.5 0
vt 0.5 0.55928176641464233
vt 0.66666668653488159 0
vt 0.66666668653488159 0.55928176641464233
vt 0.66666668653488159 0
vt 0.66666668653488159 0.55928176641464233
vt 0.83333331346511841 0
vt 0.83333331346511841 0.55928176641464233
vt 0.83333331346511841 0
vt 0.83333331346511841 0.55928176641464233
vt 1 0
vt 1 0.55928176641464233
vt 0.038253430277109146 0.7072022557258606
vt 0.2597021758556366 1
vt 0.28023269772529602 0.92965251207351685
vt 0 0.55928230285644531
vt 0 0.99695795774459839
vt 0.038253430277109146 0.99695795774459839
vt 0.038253430277109146 0.85208010673522949
vt 0.2597021758556366 0.55928230285644531
vt 0.28023269772529602 0.62962985038757324
vt 0 1
vt 0 0.5623244047164917
vt 0.038253430277109146 0.5623244047164917
vn -0.85364949703216553 0 -0.52084791660308838
vn -0.85364949703216553 0 -0.52084791660308838
vn -0.85364949703216553 0 -0.52084791660308838
vn -0.85364949703216553 0 -0.52084791660308838
vn -0.53450852632522583 0 0.84516304731369019
vn -0.53450852632522583 0 0.84516304731369019
vn -0.53450852632522583 0 0.84516304731369019
vn -0.53450852632522583 0 0.84516304731369019
vn 0.8537440299987793 0 0.52069294452667236
vn 0.8537440299987793 0 0.52069294452667236
vn 0.8537440299987793 0 0.52069294452667236
vn 0.8537440299987793 0 0.52069294452667236
vn 0 0 -1
vn 0 0 -1
vn 0 0 -1
vn 0 0 -1
vn -1 0 0
vn -1 0 0
vn -1 0 0
vn -1 0 0
vn 0 0 1
vn 0 0 1
vn 0 0 1
vn 0 0 1
vn 0 -1 0
vn 0 -1 0
vn 0 -1 0
vn 0 -1 0
vn 0 -1 0
vn 0 -1 0
vn 0 1 0
vn 0 1 0
vn 0 1 0
vn 0 1 0
vn 0 1 0
vn 0 1 0
f 1/1/1 3/3/3 4/4/4 2/2/2
f 5/5/5 7/7/7 8/8/8 6/6/6
f 9/9/9 11/11/11 12/12/12 10/10/10
f 13/13/13 15/15/15 16/16/16 14/14/14
f 17/17/17 19/19/19 20/20/20 18/18/18
f 21/21/21 23/23/23 24/24/24 22/22/22
f 25/25/25 30/30/30 29/29/29
f 25/25/25 28/28/28 27/27/27
f 29/29/29 28/28/28 25/25/25
f 26/26/26 25/25/25 27/27/27
f 31/31/31 35/35/35 36/36/36
f 31/31/31 33/33/33 34/34/34
f 35/35/35 31/31/31 34/34/34
f 32/32/32 33/33/33 31/31/31
